<svg width="16" height="15" viewBox="0 0 16 15" fill="none" xmlns="http://www.w3.org/2000/svg">
<g clip-path="url(#clip0_199_921)">
<path d="M8 0C3.58176 0 0 3.3579 0 7.5C0 11.0172 2.58304 13.9686 6.06752 14.7792V9.792H4.41792V7.5H6.06752V6.5124C6.06752 3.9597 7.29984 2.7765 9.97312 2.7765C10.48 2.7765 11.3546 2.8698 11.7123 2.9628V5.0403C11.5235 5.0217 11.1955 5.0124 10.7882 5.0124C9.47648 5.0124 8.9696 5.4783 8.9696 6.6894V7.5H11.5827L11.1338 9.792H8.9696V14.9451C12.9309 14.4966 16.0003 11.3346 16.0003 7.5C16 3.3579 12.4182 0 8 0Z" fill="#0D4292"/>
</g>
<defs>
<clipPath id="clip0_199_921">
<rect width="16" height="15" fill="white"/>
</clipPath>
</defs>
</svg>
