<svg width="37" height="36" viewBox="0 0 37 36" fill="none" xmlns="http://www.w3.org/2000/svg">
<g clip-path="url(#clip0_199_1459)">
<path d="M2 21.75C1.99908 20.0932 2.42063 18.4635 3.22483 17.015C4.02902 15.5664 5.1893 14.3468 6.596 13.4715C6.96727 10.5766 8.3807 7.91627 10.5718 5.98825C12.7629 4.06023 15.5814 2.9967 18.5 2.9967C21.4186 2.9967 24.2371 4.06023 26.4282 5.98825C28.6193 7.91627 30.0327 10.5766 30.404 13.4715C32.1488 14.557 33.5061 16.1661 34.2819 18.069C35.0578 19.9718 35.2126 22.0712 34.7242 24.0673C34.2358 26.0634 33.1293 27.8541 31.5625 29.1838C29.9958 30.5135 28.0489 31.3142 26 31.4715L11 31.5C5.966 31.089 2 26.883 2 21.75ZM25.772 28.4805C27.1907 28.3714 28.5387 27.8168 29.6234 26.8958C30.7081 25.9748 31.474 24.7346 31.8117 23.3524C32.1494 21.9701 32.0416 20.5165 31.5038 19.1991C30.966 17.8817 30.0256 16.768 28.817 16.017L27.6065 15.2625L27.4265 13.8495C27.1461 11.68 26.0853 9.68692 24.4424 8.24264C22.7994 6.79837 20.6868 6.00179 18.4993 6.00179C16.3117 6.00179 14.1991 6.79837 12.5561 8.24264C10.9132 9.68692 9.85239 11.68 9.572 13.8495L9.392 15.2625L8.1845 16.017C6.97594 16.7679 6.03557 17.8815 5.49769 19.1987C4.95981 20.516 4.85193 21.9695 5.18946 23.3517C5.52699 24.7339 6.29266 25.9742 7.37713 26.8952C8.46159 27.8163 9.80938 28.3712 11.228 28.4805L11.4875 28.5H25.5125L25.772 28.4805ZM20 19.5V25.5H17V19.5H12.5L18.5 12L24.5 19.5H20Z" fill="white"/>
</g>
<defs>
<clipPath id="clip0_199_1459">
<rect width="36" height="36" fill="white" transform="translate(0.5)"/>
</clipPath>
</defs>
</svg>
