<svg width="45" height="40" viewBox="0 0 45 40" fill="none" xmlns="http://www.w3.org/2000/svg">
<path d="M33.8889 31.25H33.9117M34.8 24.5H36.1667C38.2893 24.5 39.3505 24.5 40.1879 24.8424C41.304 25.2992 42.1909 26.1754 42.6533 27.2779C43 28.105 43 29.1532 43 31.25C43 33.3468 43 34.395 42.6533 35.2221C42.1909 36.3246 41.304 37.2008 40.1879 37.6575C39.3505 38 38.2893 38 36.1667 38H8.83333C6.71072 38 5.64941 38 4.81221 37.6575C3.69599 37.2008 2.80914 36.3246 2.34677 35.2221C2 34.395 2 33.3468 2 31.25C2 29.1532 2 28.105 2.34677 27.2779C2.80914 26.1754 3.69599 25.2992 4.81221 24.8424C5.64941 24.5 6.71072 24.5 8.83333 24.5H10.2M22.5 26.75V2M22.5 26.75L15.6667 20M22.5 26.75L29.3333 20" stroke="white" stroke-width="3" stroke-linecap="round" stroke-linejoin="round"/>
</svg>
