<svg width="17" height="15" viewBox="0 0 17 15" fill="none" xmlns="http://www.w3.org/2000/svg">
<g clip-path="url(#clip0_199_920)">
<path d="M8.5 1.35059C10.7711 1.35059 11.04 1.35937 11.9332 1.39453C12.7633 1.42676 13.2115 1.5498 13.5104 1.65234C13.9055 1.78711 14.191 1.95117 14.4865 2.21191C14.7854 2.47559 14.968 2.72461 15.1207 3.07324C15.2369 3.33691 15.3764 3.73535 15.4129 4.46484C15.4527 5.25586 15.4627 5.49316 15.4627 7.49414C15.4627 9.49805 15.4527 9.73535 15.4129 10.5234C15.3764 11.2559 15.2369 11.6514 15.1207 11.915C14.968 12.2637 14.782 12.5156 14.4865 12.7764C14.1877 13.04 13.9055 13.2012 13.5104 13.3359C13.2115 13.4385 12.76 13.5615 11.9332 13.5938C11.0367 13.6289 10.7678 13.6377 8.5 13.6377C6.22891 13.6377 5.95996 13.6289 5.0668 13.5938C4.23672 13.5615 3.78848 13.4385 3.48965 13.3359C3.09453 13.2012 2.80898 13.0371 2.51348 12.7764C2.21465 12.5127 2.03203 12.2637 1.8793 11.915C1.76309 11.6514 1.62363 11.2529 1.58711 10.5234C1.54727 9.73242 1.5373 9.49512 1.5373 7.49414C1.5373 5.49023 1.54727 5.25293 1.58711 4.46484C1.62363 3.73242 1.76309 3.33691 1.8793 3.07324C2.03203 2.72461 2.21797 2.47266 2.51348 2.21191C2.8123 1.94824 3.09453 1.78711 3.48965 1.65234C3.78848 1.5498 4.24004 1.42676 5.0668 1.39453C5.95996 1.35937 6.22891 1.35059 8.5 1.35059ZM8.5 0C6.19238 0 5.90352 0.00878906 4.99707 0.0439453C4.09395 0.0791016 3.47305 0.208008 2.93516 0.392578C2.37402 0.585937 1.89922 0.84082 1.42773 1.25977C0.95293 1.67578 0.664062 2.09473 0.444922 2.58691C0.235742 3.06445 0.0896484 3.60937 0.0498047 4.40625C0.00996094 5.20898 0 5.46387 0 7.5C0 9.53613 0.00996094 9.79102 0.0498047 10.5908C0.0896484 11.3877 0.235742 11.9355 0.444922 12.4102C0.664062 12.9053 0.95293 13.3242 1.42773 13.7402C1.89922 14.1562 2.37402 14.4141 2.93184 14.6045C3.47305 14.7891 4.09062 14.918 4.99375 14.9531C5.9002 14.9883 6.18906 14.9971 8.49668 14.9971C10.8043 14.9971 11.0932 14.9883 11.9996 14.9531C12.9027 14.918 13.5236 14.7891 14.0615 14.6045C14.6193 14.4141 15.0941 14.1562 15.5656 13.7402C16.0371 13.3242 16.3293 12.9053 16.5451 12.4131C16.7543 11.9355 16.9004 11.3906 16.9402 10.5938C16.9801 9.79395 16.99 9.53906 16.99 7.50293C16.99 5.4668 16.9801 5.21191 16.9402 4.41211C16.9004 3.61523 16.7543 3.06738 16.5451 2.59277C16.3359 2.09473 16.0471 1.67578 15.5723 1.25977C15.1008 0.84375 14.626 0.585938 14.0682 0.395508C13.527 0.210937 12.9094 0.0820312 12.0063 0.046875C11.0965 0.00878907 10.8076 0 8.5 0Z" fill="#0D4292"/>
<path d="M8.5 3.64746C6.08945 3.64746 4.13379 5.37305 4.13379 7.5C4.13379 9.62695 6.08945 11.3525 8.5 11.3525C10.9105 11.3525 12.8662 9.62695 12.8662 7.5C12.8662 5.37305 10.9105 3.64746 8.5 3.64746ZM8.5 9.99902C6.93613 9.99902 5.66777 8.87988 5.66777 7.5C5.66777 6.12012 6.93613 5.00098 8.5 5.00098C10.0639 5.00098 11.3322 6.12012 11.3322 7.5C11.3322 8.87988 10.0639 9.99902 8.5 9.99902Z" fill="#0D4292"/>
<path d="M14.0582 3.49512C14.0582 3.99317 13.6 4.39453 13.0389 4.39453C12.4744 4.39453 12.0195 3.99024 12.0195 3.49512C12.0195 2.99707 12.4777 2.5957 13.0389 2.5957C13.6 2.5957 14.0582 3 14.0582 3.49512Z" fill="#0D4292"/>
</g>
<defs>
<clipPath id="clip0_199_920">
<rect width="17" height="15" fill="white"/>
</clipPath>
</defs>
</svg>
