<svg width="14" height="12" viewBox="0 0 14 12" fill="none" xmlns="http://www.w3.org/2000/svg">
<path d="M2.268 3.474C1.72667 3.474 1.29267 3.32933 0.966 3.04C0.639333 2.75067 0.476 2.38667 0.476 1.948C0.476 1.5 0.639333 1.13133 0.966 0.841999C1.29267 0.543333 1.72667 0.393999 2.268 0.393999C2.8 0.393999 3.22933 0.543333 3.556 0.841999C3.88267 1.13133 4.046 1.5 4.046 1.948C4.046 2.38667 3.88267 2.75067 3.556 3.04C3.22933 3.32933 2.8 3.474 2.268 3.474ZM3.808 4.104V12H0.7V4.104H3.808ZM10.7417 4.048C11.6471 4.048 12.3517 4.35133 12.8557 4.958C13.3691 5.56467 13.6257 6.386 13.6257 7.422V12H10.5317V7.814C10.5317 7.44067 10.4291 7.14667 10.2237 6.932C10.0277 6.708 9.76172 6.596 9.42572 6.596C9.08039 6.596 8.80972 6.708 8.61372 6.932C8.41772 7.14667 8.31972 7.44067 8.31972 7.814V12H5.21172V4.104H8.31972V5.308C8.56239 4.93467 8.88439 4.63133 9.28572 4.398C9.69639 4.16467 10.1817 4.048 10.7417 4.048Z" fill="black"/>
</svg>
