<svg width="17" height="15" viewBox="0 0 17 15" fill="none" xmlns="http://www.w3.org/2000/svg">
<g clip-path="url(#clip0_199_933)">
<path d="M15.7416 0H1.25508C0.561133 0 0 0.483398 0 1.08105V13.916C0 14.5137 0.561133 15 1.25508 15H15.7416C16.4355 15 17 14.5137 17 13.9189V1.08105C17 0.483398 16.4355 0 15.7416 0ZM5.04355 12.7822H2.52012V5.62207H5.04355V12.7822ZM3.78184 4.64648C2.97168 4.64648 2.31758 4.06934 2.31758 3.35742C2.31758 2.64551 2.97168 2.06836 3.78184 2.06836C4.58867 2.06836 5.24277 2.64551 5.24277 3.35742C5.24277 4.06641 4.58867 4.64648 3.78184 4.64648ZM14.4865 12.7822H11.9664V9.30176C11.9664 8.47266 11.9498 7.40332 10.6549 7.40332C9.34336 7.40332 9.14414 8.30859 9.14414 9.24316V12.7822H6.62734V5.62207H9.04453V6.60059H9.07773C9.41308 6.03809 10.2365 5.44336 11.4617 5.44336C14.015 5.44336 14.4865 6.92578 14.4865 8.85352V12.7822Z" fill="#0D4292"/>
</g>
<defs>
<clipPath id="clip0_199_933">
<rect width="17" height="15" fill="white"/>
</clipPath>
</defs>
</svg>
