<svg width="17" height="22" viewBox="0 0 17 22" fill="none" xmlns="http://www.w3.org/2000/svg">
<path fill-rule="evenodd" clip-rule="evenodd" d="M1.69202 2.93237H15.3078C15.6378 2.93281 15.9541 3.06873 16.1875 3.31031C16.4208 3.55189 16.5521 3.87942 16.5525 4.22106V13.3792C16.5521 13.7208 16.4208 14.0483 16.1874 14.2898C15.9541 14.5314 15.6377 14.6672 15.3078 14.6677H1.69202C1.36206 14.6672 1.04572 14.5314 0.812381 14.2898C0.579041 14.0483 0.447739 13.7208 0.447266 13.3792V4.22106C0.447692 3.87942 0.578972 3.55189 0.812317 3.31031C1.04566 3.06873 1.36202 2.93281 1.69202 2.93237ZM1.20224 13.2764L6.13779 8.80003L1.20224 4.3237V13.2764ZM6.70881 9.31765L1.67216 13.8857C1.6786 13.8857 1.6854 13.8857 1.69202 13.8857H15.3078C15.3144 13.8857 15.3212 13.8857 15.3276 13.8857L10.2908 9.31765L9.31912 10.1991C9.09324 10.4065 8.8018 10.521 8.4999 10.521C8.198 10.521 7.90656 10.4065 7.68068 10.1991L6.70881 9.31765ZM10.862 8.80003L15.7975 13.2764V4.3237L10.862 8.80003ZM1.67216 3.71437L8.17618 9.61296C8.26572 9.69429 8.38078 9.73914 8.4999 9.73914C8.61902 9.73914 8.73407 9.69429 8.82361 9.61296L15.3276 3.71437C15.321 3.71437 15.3144 3.71437 15.3078 3.71437H1.69202C1.6854 3.714 1.6786 3.714 1.67216 3.71437Z" fill="black"/>
</svg>
