<svg width="16" height="15" viewBox="0 0 16 15" fill="none" xmlns="http://www.w3.org/2000/svg">
<path d="M0 15L1.12466 11.1481C0.430666 10.0206 0.0659999 8.7425 0.0666665 7.43187C0.0686665 3.33437 3.62533 0 7.99532 0C10.116 0.000625 12.1066 0.775 13.604 2.18C15.1006 3.585 15.9246 5.4525 15.924 7.43875C15.922 11.5369 12.3653 14.8713 7.99532 14.8713C6.66865 14.8706 5.36132 14.5588 4.20332 13.9663L0 15ZM4.39799 12.6206C5.51532 13.2425 6.58198 13.615 7.99265 13.6156C11.6246 13.6156 14.5833 10.8444 14.5853 7.4375C14.5866 4.02375 11.642 1.25625 7.99798 1.255C4.36332 1.255 1.40666 4.02625 1.40533 7.4325C1.40466 8.82312 1.83933 9.86437 2.56933 10.9537L1.90333 13.2337L4.39799 12.6206ZM11.9893 9.20563C11.94 9.12813 11.808 9.08187 11.6093 8.98875C11.4113 8.89563 10.4373 8.44625 10.2553 8.38437C10.074 8.3225 9.94198 8.29125 9.80931 8.4775C9.67731 8.66313 9.29731 9.08187 9.18198 9.20563C9.06665 9.32938 8.95065 9.345 8.75265 9.25187C8.55465 9.15875 7.91598 8.96313 7.15932 8.33C6.57065 7.8375 6.17265 7.22937 6.05732 7.04313C5.94199 6.8575 6.04532 6.75688 6.14399 6.66438C6.23332 6.58125 6.34199 6.4475 6.44132 6.33875C6.54199 6.23125 6.57465 6.15375 6.64132 6.02938C6.70732 5.90563 6.67465 5.79688 6.62465 5.70375C6.57465 5.61125 6.17865 4.69688 6.01399 4.325C5.85265 3.96312 5.68932 4.01187 5.56799 4.00625L5.18799 4C5.05599 4 4.84132 4.04625 4.65999 4.2325C4.47866 4.41875 3.96666 4.8675 3.96666 5.78188C3.96666 6.69625 4.67666 7.57937 4.77532 7.70312C4.87466 7.82687 6.17199 9.70312 8.15932 10.5075C8.63198 10.6988 9.00131 10.8131 9.28865 10.8988C9.76331 11.04 10.1953 11.02 10.5366 10.9725C10.9173 10.9194 11.7086 10.5231 11.874 10.0894C12.0393 9.655 12.0393 9.28312 11.9893 9.20563Z" fill="#0D4292"/>
</svg>
