<svg width="16" height="15" viewBox="0 0 16 15" fill="none" xmlns="http://www.w3.org/2000/svg">
<path d="M15.8406 4.5C15.8406 4.5 15.6844 3.46582 15.2031 3.01172C14.5938 2.41406 13.9125 2.41113 13.6 2.37598C11.3625 2.22363 8.00313 2.22363 8.00313 2.22363H7.99687C7.99687 2.22363 4.6375 2.22363 2.4 2.37598C2.0875 2.41113 1.40625 2.41406 0.796875 3.01172C0.315625 3.46582 0.1625 4.5 0.1625 4.5C0.1625 4.5 0 5.71582 0 6.92871V8.06543C0 9.27832 0.159375 10.4941 0.159375 10.4941C0.159375 10.4941 0.315625 11.5283 0.79375 11.9824C1.40313 12.5801 2.20313 12.5596 2.55938 12.624C3.84063 12.7383 8 12.7734 8 12.7734C8 12.7734 11.3625 12.7676 13.6 12.6182C13.9125 12.583 14.5938 12.5801 15.2031 11.9824C15.6844 11.5283 15.8406 10.4941 15.8406 10.4941C15.8406 10.4941 16 9.28125 16 8.06543V6.92871C16 5.71582 15.8406 4.5 15.8406 4.5ZM6.34688 9.44531V5.22949L10.6687 7.34473L6.34688 9.44531Z" fill="#0D4292"/>
</svg>
